<svg xmlns="http://www.w3.org/2000/svg" width="32" height="32" viewBox="0 0 32 32"><g fill="none"><path fill="#d99a64" d="M19.267 7h-6.524a8.317 8.317 0 0 0-8.318 8.318v1.323h23.17v-1.323C27.585 10.728 23.857 7 19.267 7"/><path fill="url(#f647id0)" d="M19.267 7h-6.524a8.317 8.317 0 0 0-8.318 8.318v1.323h23.17v-1.323C27.585 10.728 23.857 7 19.267 7"/><g filter="url(#f647idl)"><path fill="#e5a671" d="M15.772 13.471a.772.772 0 1 0 0-1.543a.772.772 0 0 0 0 1.543"/></g><path fill="url(#f647id1)" d="M16 13.263a.772.772 0 1 0 0-1.543a.772.772 0 0 0 0 1.543"/><g filter="url(#f647idm)"><path fill="#de9b64" d="M10.37 12.7c.465 0 .843-.38.843-.85s-.378-.85-.844-.85a.847.847 0 0 0-.844.85c0 .47.378.85.844.85"/></g><path fill="url(#f647id2)" d="M10.88 12.382a.772.772 0 1 0-.001-1.544a.772.772 0 0 0 0 1.544"/><g filter="url(#f647idn)"><path fill="#f4b982" d="M20.892 12.491a.772.772 0 1 0 0-1.543a.772.772 0 0 0 0 1.543"/></g><path fill="url(#f647id3)" d="M21.121 12.382a.772.772 0 1 0 0-1.544a.772.772 0 0 0 0 1.544"/><g filter="url(#f647ido)"><path fill="#de9d64" d="M13.156 10.373c.466 0 .844-.38.844-.85a.847.847 0 0 0-.844-.85a.847.847 0 0 0-.844.85c0 .47.378.85.844.85"/></g><path fill="url(#f647id4)" d="M13.565 10.217a.772.772 0 1 0 0-1.543a.772.772 0 0 0 0 1.543"/><g filter="url(#f647idp)"><path fill="#e6a769" d="M18.06 10.373a.772.772 0 1 0 0-1.543a.772.772 0 0 0 0 1.543"/></g><path fill="url(#f647id5)" d="M18.435 10.217a.772.772 0 1 0 0-1.543a.772.772 0 0 0 0 1.543"/><path fill="url(#f647idb)" d="M27.435 16.41H4.565v3.207h22.87z"/><path fill="url(#f647idc)" d="M27.435 16.41H4.565v3.207h22.87z"/><path fill="url(#f647idd)" d="M27.675 25.139H4.325A2.327 2.327 0 0 1 2 22.814a2.327 2.327 0 0 1 2.325-2.325h23.35A2.327 2.327 0 0 1 30 22.814a2.327 2.327 0 0 1-2.325 2.325"/><path fill="url(#f647id6)" d="M27.675 25.139H4.325A2.327 2.327 0 0 1 2 22.814a2.327 2.327 0 0 1 2.325-2.325h23.35A2.327 2.327 0 0 1 30 22.814a2.327 2.327 0 0 1-2.325 2.325"/><path fill="url(#f647id7)" d="M27.675 25.139H4.325A2.327 2.327 0 0 1 2 22.814a2.327 2.327 0 0 1 2.325-2.325h23.35A2.327 2.327 0 0 1 30 22.814a2.327 2.327 0 0 1-2.325 2.325"/><g fill-rule="evenodd" clip-rule="evenodd" filter="url(#f647idq)"><path fill="url(#f647ide)" d="M9.666 15.411c1.58 0 3.139.645 3.843 1.021c.705.377 1.26.673 2.501.673c1.856 0 7.408-1.694 9.677-.48c.704.377-.14.48 1.094.48l.313 1.426c-.719 0-1.36-.196-2.23-.661l-.02-.01c-.705-.377-1.256-.672-2.49-.672s-1.786.294-2.49.67l-.022.012c-.872.466-1.907 1.011-3.832 1.011s-2.96-.545-3.832-1.01l-.021-.012c-.705-.377-1.257-.671-2.49-.671c-1.236 0-1.79.295-2.498.672l-.019.01c-.872.465-1.056.661-2.088.661c0 0 .054-1.724.758-2.099c.874-.466 1.912-1.02 3.846-1.02"/><path fill="#e0215c" d="M9.666 15.411c1.58 0 3.139.645 3.843 1.021c.705.377 1.26.673 2.501.673c1.856 0 7.408-1.694 9.677-.48c.704.377-.14.48 1.094.48l.313 1.426c-.719 0-1.36-.196-2.23-.661l-.02-.01c-.705-.377-1.256-.672-2.49-.672s-1.786.294-2.49.67l-.022.012c-.872.466-1.907 1.011-3.832 1.011s-2.96-.545-3.832-1.01l-.021-.012c-.705-.377-1.257-.671-2.49-.671c-1.236 0-1.79.295-2.498.672l-.019.01c-.872.465-1.056.661-2.088.661c0 0 .054-1.724.758-2.099c.874-.466 1.912-1.02 3.846-1.02"/></g><path fill="url(#f647idf)" fill-rule="evenodd" d="M5.839 15.175c.872-.465 1.907-1.01 3.827-1.01c1.921 0 2.954.546 3.825 1.01l.018.01c.705.377 1.26.673 2.501.673s1.796-.296 2.5-.672l.019-.01c.87-.465 1.904-1.011 3.825-1.011c1.92 0 2.954.546 3.824 1.011l.02.01c.703.377 1.255.672 2.49.672a1.394 1.394 0 0 1 0 2.788c-1.922 0-2.955-.547-3.825-1.012l-.02-.01c-.704-.377-1.255-.672-2.49-.672c-1.233 0-1.785.295-2.49.671l-.02.012c-.873.465-1.908 1.01-3.833 1.01s-2.96-.545-3.832-1.01l-.021-.012c-.705-.376-1.257-.67-2.49-.67c-1.236 0-1.79.295-2.498.672l-.019.01c-.872.465-1.907 1.01-3.827 1.01a1.394 1.394 0 1 1 0-2.787c1.235 0 1.79-.295 2.497-.673z" clip-rule="evenodd"/><path fill="url(#f647id8)" fill-rule="evenodd" d="M5.839 15.175c.872-.465 1.907-1.01 3.827-1.01c1.921 0 2.954.546 3.825 1.01l.018.01c.705.377 1.26.673 2.501.673s1.796-.296 2.5-.672l.019-.01c.87-.465 1.904-1.011 3.825-1.011c1.92 0 2.954.546 3.824 1.011l.02.01c.703.377 1.255.672 2.49.672a1.394 1.394 0 0 1 0 2.788c-1.922 0-2.955-.547-3.825-1.012l-.02-.01c-.704-.377-1.255-.672-2.49-.672c-1.233 0-1.785.295-2.49.671l-.02.012c-.873.465-1.908 1.01-3.833 1.01s-2.96-.545-3.832-1.01l-.021-.012c-.705-.376-1.257-.67-2.49-.67c-1.236 0-1.79.295-2.498.672l-.019.01c-.872.465-1.907 1.01-3.827 1.01a1.394 1.394 0 1 1 0-2.787c1.235 0 1.79-.295 2.497-.673z" clip-rule="evenodd"/><path fill="url(#f647idg)" d="M24.849 29.699H7.15a2.575 2.575 0 0 1-2.575-2.576V25.14h22.869v1.974a2.6 2.6 0 0 1-2.596 2.586"/><path fill="url(#f647id9)" d="M24.849 29.699H7.15a2.575 2.575 0 0 1-2.575-2.576V25.14h22.869v1.974a2.6 2.6 0 0 1-2.596 2.586"/><path fill="url(#f647idh)" d="M27.435 19.617H4.565v.872l7.286 1.633c2.726.612 5.562.612 8.288 0l7.285-1.633v-.872z"/><g filter="url(#f647idr)"><path stroke="url(#f647idi)" stroke-width="0.25" d="M26.969 20.031c-2.219.782-5.994 1.519-6.594 1.594"/></g><g filter="url(#f647ids)"><path stroke="url(#f647idj)" stroke-width="0.25" d="M4.875 20.031c2.219.782 5.994 1.519 6.594 1.594"/></g><g filter="url(#f647idt)"><path stroke="url(#f647ida)" stroke-width="0.75" d="M12.063 16c.75.48 2.85 1.719 4 1.719c1.437 0 6.01-3.78 8.718-2.344c2.063 1.094 3.823 1.031 3.657 1.094"/></g><g filter="url(#f647idu)"><path fill="url(#f647idk)" d="M7.813 16.328c-1.481.774-3.563 1.797-4.782 2.078l-.344-2.078s.497.323 2.438-.578C7.75 14.531 9.172 14 10.703 14.5l1.485 2.938c-.948-.657-3.688-1.47-4.376-1.11"/></g><defs><radialGradient id="f647id0" cx="0" cy="0" r="1" gradientTransform="rotate(154.335 10.993 8.454)scale(16.0178 15.5184)" gradientUnits="userSpaceOnUse"><stop offset=".131" stop-color="#ffd39b"/><stop offset="1" stop-color="#ffd39a" stop-opacity="0"/></radialGradient><radialGradient id="f647id1" cx="0" cy="0" r="1" gradientTransform="rotate(124.244 5.031 10.37)scale(2.14467)" gradientUnits="userSpaceOnUse"><stop offset=".182" stop-color="#f6e8d9"/><stop offset=".607" stop-color="#e2cfc1"/></radialGradient><radialGradient id="f647id2" cx="0" cy="0" r="1" gradientTransform="rotate(124.244 2.704 8.575)scale(2.14467)" gradientUnits="userSpaceOnUse"><stop offset=".182" stop-color="#f6e8d9"/><stop offset=".607" stop-color="#e2cfc1"/></radialGradient><radialGradient id="f647id3" cx="0" cy="0" r="1" gradientTransform="rotate(124.244 7.825 11.284)scale(2.14467)" gradientUnits="userSpaceOnUse"><stop offset=".182" stop-color="#f6e8d9"/><stop offset=".607" stop-color="#e2cfc1"/></radialGradient><radialGradient id="f647id4" cx="0" cy="0" r="1" gradientTransform="rotate(124.244 4.62 8.203)scale(2.14467)" gradientUnits="userSpaceOnUse"><stop offset=".182" stop-color="#f6e8d9"/><stop offset=".607" stop-color="#e2cfc1"/></radialGradient><radialGradient id="f647id5" cx="0" cy="0" r="1" gradientTransform="rotate(124.244 7.055 9.491)scale(2.14467)" gradientUnits="userSpaceOnUse"><stop offset=".182" stop-color="#f6e8d9"/><stop offset=".607" stop-color="#e2cfc1"/></radialGradient><radialGradient id="f647id6" cx="0" cy="0" r="1" gradientTransform="matrix(.5625 5.625 -18.58819 1.85882 11 20.125)" gradientUnits="userSpaceOnUse"><stop stop-color="#6b544c"/><stop offset="1" stop-color="#6b544c" stop-opacity="0"/></radialGradient><radialGradient id="f647id7" cx="0" cy="0" r="1" gradientTransform="matrix(0 3.75 -11.7763 0 16 24.375)" gradientUnits="userSpaceOnUse"><stop stop-color="#803e4c"/><stop offset="1" stop-color="#824456" stop-opacity="0"/></radialGradient><radialGradient id="f647id8" cx="0" cy="0" r="1" gradientTransform="matrix(.25 1.75 -4.8465 .69236 2.75 17.094)" gradientUnits="userSpaceOnUse"><stop stop-color="#6c9b83"/><stop offset="1" stop-color="#6d9b85" stop-opacity="0"/></radialGradient><radialGradient id="f647id9" cx="0" cy="0" r="1" gradientTransform="matrix(0 3.625 -20.4656 0 27.813 26.688)" gradientUnits="userSpaceOnUse"><stop stop-color="#ffd5ae"/><stop offset="1" stop-color="#ffc8a0" stop-opacity="0"/></radialGradient><radialGradient id="f647ida" cx="0" cy="0" r="1" gradientTransform="rotate(15.695 -44.933 86.364)scale(7.85538 3.79254)" gradientUnits="userSpaceOnUse"><stop offset=".227" stop-color="#87be66"/><stop offset="1" stop-color="#92c771" stop-opacity="0"/></radialGradient><linearGradient id="f647idb" x1="4.566" x2="27.435" y1="19.617" y2="19.617" gradientUnits="userSpaceOnUse"><stop stop-color="#dd7476"/><stop offset=".085" stop-color="#e2565f"/><stop offset=".243" stop-color="#de445c"/><stop offset=".508" stop-color="#d62650"/><stop offset=".784" stop-color="#eb4a80"/><stop offset=".94" stop-color="#db4379"/><stop offset="1" stop-color="#d45e85"/></linearGradient><linearGradient id="f647idc" x1="16" x2="16" y1="19.938" y2="19" gradientUnits="userSpaceOnUse"><stop offset=".467" stop-color="#e72d62"/><stop offset=".846" stop-color="#e72e64" stop-opacity="0"/></linearGradient><linearGradient id="f647idd" x1="16" x2="16" y1="20.489" y2="25.139" gradientUnits="userSpaceOnUse"><stop stop-color="#946b52"/><stop offset=".312" stop-color="#a77a6f"/><stop offset=".661" stop-color="#98655d"/><stop offset="1" stop-color="#86536d"/></linearGradient><linearGradient id="f647ide" x1="2.25" x2="29.688" y1="16.641" y2="16.641" gradientUnits="userSpaceOnUse"><stop stop-color="#437151"/><stop offset=".508" stop-color="#619f49"/><stop offset="1" stop-color="#79b142"/></linearGradient><linearGradient id="f647idf" x1="2.25" x2="29.688" y1="16.405" y2="16.405" gradientUnits="userSpaceOnUse"><stop stop-color="#437151"/><stop offset=".508" stop-color="#619f49"/><stop offset="1" stop-color="#79b142"/></linearGradient><linearGradient id="f647idg" x1="16.01" x2="16.01" y1="25.139" y2="29.699" gradientUnits="userSpaceOnUse"><stop stop-color="#e18f63"/><stop offset=".381" stop-color="#e89c6e"/><stop offset=".573" stop-color="#ea9d75"/><stop offset="1" stop-color="#e0819d"/></linearGradient><linearGradient id="f647idh" x1="16" x2="16" y1="18.688" y2="22.581" gradientUnits="userSpaceOnUse"><stop stop-color="#c7850f"/><stop offset=".488" stop-color="#f0cd2d"/><stop offset="1" stop-color="#f7c747"/></linearGradient><linearGradient id="f647idi" x1="19.375" x2="19.51" y1="21.188" y2="19.206" gradientUnits="userSpaceOnUse"><stop stop-color="#ffe07a" stop-opacity="0"/><stop offset=".218" stop-color="#ffe68f"/><stop offset="1" stop-color="#ffdb5c"/></linearGradient><linearGradient id="f647idj" x1="12.469" x2="12.333" y1="21.188" y2="19.206" gradientUnits="userSpaceOnUse"><stop stop-color="#ffe07a" stop-opacity="0"/><stop offset=".218" stop-color="#ffe68f"/><stop offset="1" stop-color="#ffdb5c"/></linearGradient><linearGradient id="f647idk" x1="3.563" x2="11.656" y1="17.344" y2="16.156" gradientUnits="userSpaceOnUse"><stop stop-color="#66987e"/><stop offset=".458" stop-color="#66987e" stop-opacity="0.542"/><stop offset="1" stop-color="#66987e" stop-opacity="0"/></linearGradient><filter id="f647idl" width="2.543" height="2.543" x="14.5" y="11.428" color-interpolation-filters="sRGB" filterUnits="userSpaceOnUse"><feFlood flood-opacity="0" result="BackgroundImageFix"/><feBlend in="SourceGraphic" in2="BackgroundImageFix" result="shape"/><feGaussianBlur result="effect1_foregroundBlur_18_30551" stdDeviation=".25"/></filter><filter id="f647idm" width="2.688" height="2.7" x="9.025" y="10.5" color-interpolation-filters="sRGB" filterUnits="userSpaceOnUse"><feFlood flood-opacity="0" result="BackgroundImageFix"/><feBlend in="SourceGraphic" in2="BackgroundImageFix" result="shape"/><feGaussianBlur result="effect1_foregroundBlur_18_30551" stdDeviation=".25"/></filter><filter id="f647idn" width="2.543" height="2.543" x="19.621" y="10.448" color-interpolation-filters="sRGB" filterUnits="userSpaceOnUse"><feFlood flood-opacity="0" result="BackgroundImageFix"/><feBlend in="SourceGraphic" in2="BackgroundImageFix" result="shape"/><feGaussianBlur result="effect1_foregroundBlur_18_30551" stdDeviation=".25"/></filter><filter id="f647ido" width="2.688" height="2.7" x="11.813" y="8.174" color-interpolation-filters="sRGB" filterUnits="userSpaceOnUse"><feFlood flood-opacity="0" result="BackgroundImageFix"/><feBlend in="SourceGraphic" in2="BackgroundImageFix" result="shape"/><feGaussianBlur result="effect1_foregroundBlur_18_30551" stdDeviation=".25"/></filter><filter id="f647idp" width="2.543" height="2.543" x="16.789" y="8.33" color-interpolation-filters="sRGB" filterUnits="userSpaceOnUse"><feFlood flood-opacity="0" result="BackgroundImageFix"/><feBlend in="SourceGraphic" in2="BackgroundImageFix" result="shape"/><feGaussianBlur result="effect1_foregroundBlur_18_30551" stdDeviation=".25"/></filter><filter id="f647idq" width="23.031" height="4.47" x="4.563" y="14.911" color-interpolation-filters="sRGB" filterUnits="userSpaceOnUse"><feFlood flood-opacity="0" result="BackgroundImageFix"/><feBlend in="SourceGraphic" in2="BackgroundImageFix" result="shape"/><feGaussianBlur result="effect1_foregroundBlur_18_30551" stdDeviation=".25"/></filter><filter id="f647idr" width="7.151" height="2.336" x="20.11" y="19.663" color-interpolation-filters="sRGB" filterUnits="userSpaceOnUse"><feFlood flood-opacity="0" result="BackgroundImageFix"/><feBlend in="SourceGraphic" in2="BackgroundImageFix" result="shape"/><feGaussianBlur result="effect1_foregroundBlur_18_30551" stdDeviation=".125"/></filter><filter id="f647ids" width="7.151" height="2.336" x="4.583" y="19.663" color-interpolation-filters="sRGB" filterUnits="userSpaceOnUse"><feFlood flood-opacity="0" result="BackgroundImageFix"/><feBlend in="SourceGraphic" in2="BackgroundImageFix" result="shape"/><feGaussianBlur result="effect1_foregroundBlur_18_30551" stdDeviation=".125"/></filter><filter id="f647idt" width="17.963" height="4.419" x="11.361" y="14.175" color-interpolation-filters="sRGB" filterUnits="userSpaceOnUse"><feFlood flood-opacity="0" result="BackgroundImageFix"/><feBlend in="SourceGraphic" in2="BackgroundImageFix" result="shape"/><feGaussianBlur result="effect1_foregroundBlur_18_30551" stdDeviation=".25"/></filter><filter id="f647idu" width="10.5" height="5.093" x="2.188" y="13.813" color-interpolation-filters="sRGB" filterUnits="userSpaceOnUse"><feFlood flood-opacity="0" result="BackgroundImageFix"/><feBlend in="SourceGraphic" in2="BackgroundImageFix" result="shape"/><feGaussianBlur result="effect1_foregroundBlur_18_30551" stdDeviation=".25"/></filter></defs></g></svg>